<svg width="120" height="115" viewBox="0 0 120 115" fill="none" xmlns="http://www.w3.org/2000/svg">
<path d="M119.069 79.8486L119.014 79.7219C118.946 79.5544 118.877 79.3909 118.805 79.2254C117.673 76.6794 115.458 74.869 113.482 72.983L110.944 70.5556L107.886 67.6336L107.806 67.556L107.542 67.3067C105.493 65.3451 103.443 63.3917 101.398 61.4444C97.2297 57.464 93.0593 53.4857 88.8869 49.5053C86.3613 47.0962 83.8358 44.6912 81.3082 42.2924C77.6588 38.8106 74.0115 35.3328 70.3642 31.8572C66.0323 27.7378 61.7005 23.6226 57.3646 19.5094C56.4471 18.6369 55.5317 17.7685 54.602 16.9001L51.4349 13.9148C51.298 13.735 51.1365 13.5756 50.9567 13.4387C50.7749 13.2854 50.5685 13.1649 50.3478 13.075C43.8562 9.46239 37.1643 6.20942 30.6257 2.70513C29.0462 1.86533 27.3155 0.535125 25.5562 0.120331C24.6878 -0.092174 23.7724 -0.0227012 22.9469 0.324663C22.1214 0.669984 21.4287 1.27072 20.969 2.03901C19.9821 3.73701 20.4193 5.58212 21.2448 7.21882C24.0973 12.8931 27.0274 18.5286 29.9167 24.1825L32.8304 29.8854C32.8917 30.055 32.9755 30.2164 33.0777 30.3676C33.2738 30.7333 33.5599 31.0398 33.9114 31.2605C43.1492 40.2715 52.3871 49.2826 61.6229 58.2936L89.9106 85.8866L99.3078 95.0488C99.4529 95.1837 99.6 95.3124 99.7491 95.4391L99.8472 95.5168C99.9678 95.6148 100.084 95.7109 100.203 95.8008L100.297 95.8682C100.419 95.9602 100.544 96.048 100.669 96.1379L100.74 96.1829C100.875 96.2728 101.012 96.3627 101.149 96.4444L101.196 96.473C101.343 96.5609 101.49 96.6447 101.637 96.7223L101.67 96.7366C101.823 96.8183 101.98 96.898 102.138 96.9736H102.156C102.318 97.0472 102.481 97.1228 102.653 97.1902C102.82 97.2597 102.988 97.3251 103.149 97.3843C103.319 97.4456 103.49 97.5008 103.664 97.5539C103.836 97.603 104.007 97.652 104.179 97.6929H104.199C104.369 97.7358 104.535 97.7726 104.696 97.8053H104.739C104.9 97.8339 105.062 97.8645 105.235 97.887H105.307C105.458 97.9095 105.609 97.9279 105.763 97.9422H105.873C106.012 97.9544 106.149 97.9667 106.288 97.9749H107.33L107.6 97.9626L107.849 97.9483L108.18 97.9197L108.362 97.8993C108.493 97.885 108.625 97.8645 108.76 97.8441L108.871 97.8298C109.024 97.8053 109.179 97.7787 109.336 97.746H109.371C111.66 97.2985 113.797 96.2769 115.583 94.775C117.495 93.122 118.858 90.9254 119.494 88.4796C120.291 85.6332 120.144 82.605 119.073 79.8506L119.069 79.8486ZM50.3294 20.008C53.705 23.1874 57.0703 26.3708 60.4296 29.5584C61.016 30.1265 61.6045 30.6925 62.1929 31.2523C68.6743 37.4089 75.1496 43.5735 81.6167 49.7423C89.7961 57.5355 97.9715 65.3431 106.139 73.1628L101.298 78.0014C86.6801 63.406 71.5963 49.2887 56.7761 34.8956C53.2493 31.4587 49.7328 28.0014 46.2285 24.5237C47.7692 23.1996 49.2485 21.6978 50.3294 20.008ZM30.0781 13.0709C31.2285 12.0983 32.3544 11.097 33.4537 10.0672C37.3196 12.0574 41.1978 14.0476 45.027 16.1032C43.4598 18.5041 41.2959 20.5229 39.1218 22.4702C38.1594 23.3324 37.1725 24.1661 36.1672 24.9814L30.8014 14.4849L30.0781 13.0688V13.0709Z" fill="#FFEFD8"/>
<path d="M98.0902 109.27C98.0166 109.187 97.9267 109.113 97.8409 109.021C95.4502 106.569 92.9983 104.168 90.5279 101.788L85.8895 106.763L84.069 105.092L88.7379 100.075C86.7968 98.2099 84.8556 96.3443 82.9308 94.4686L78.2945 99.4441L76.478 97.7583L81.1572 92.7338L75.5054 87.2148L70.6484 92.4375L68.8278 90.7436L73.7257 85.48L68.0759 79.959L62.8532 85.5801L61.0326 83.8862L66.3043 78.2201L60.1437 72.2025L54.7759 77.9565L52.9553 76.2626L58.3517 70.4616L53.8953 66.1094L52.5242 64.771L47.136 70.5617L45.3154 68.8658L50.7383 63.0321L44.588 57.0248L39.4551 62.5417L37.6345 60.8478L42.8103 55.2859L37.089 49.6974L31.6558 55.5331L29.8434 53.8372L35.3154 47.9565L29.6717 42.4477L24.1609 48.359L22.3403 46.6631L27.8838 40.6946L24.4245 37.3292L22.1666 35.1224L16.6619 41.044L14.8413 39.3501L20.393 33.3815C18.6562 31.6917 16.9194 29.9998 15.1826 28.3059L9.48578 34.4236L7.66518 32.7277L13.4008 26.5671L7.97168 21.2646C6.66396 19.9835 4.83519 19.0946 3.1944 20.6782C2.14209 21.6917 2.2606 23.1057 2.22178 24.4318L1.83355 37.1944C1.41467 51.0378 0.993746 64.8813 0.574865 78.7228L0.0905987 94.6402C-0.0299571 98.6656 -0.326238 102.482 1.62513 106.214C4.05464 110.883 9.00356 113.717 14.2038 113.827L38.1699 113.999L79.8822 114.295L93.4335 114.393C94.2508 114.393 95.0824 114.45 95.8977 114.411C98.5602 114.291 99.9067 111.287 98.0923 109.272L98.0902 109.27ZM54.0342 91.6631C53.3374 92.3844 52.4547 92.5683 51.5128 92.5867C44.733 92.7154 37.9288 92.4886 31.149 92.4416C29.4061 92.4253 27.6795 92.0922 26.055 91.4588C20.2827 89.1314 16.7375 83.5797 16.9112 77.3762C17.0215 73.4939 17.1605 69.6116 17.2647 65.7313C17.3239 63.8658 17.3791 62.0002 17.4343 60.1326C17.4465 59.7281 17.4343 59.3153 17.4711 58.9087C17.6243 56.7673 19.8045 55.1224 21.856 56.2422C22.4976 56.5895 22.988 57.1433 23.505 57.648L45.1131 78.7575L52.5079 85.9704C52.988 86.4404 53.5029 86.894 53.9586 87.3885C55.0824 88.6083 55.2275 90.4289 54.0342 91.6651V91.6631Z" fill="#FFEFD8"/>
</svg>
