<svg width="205" height="28" viewBox="0 0 205 28" fill="none" xmlns="http://www.w3.org/2000/svg">
<path d="M6.78835 27H0.856534L9.89489 0.818181H17.0284L26.054 27H20.1222L13.5639 6.80114H13.3594L6.78835 27ZM6.41761 16.7088H20.429V21.0298H6.41761V16.7088ZM44.984 12.9631L39.9982 13.2699C39.913 12.8437 39.7298 12.4602 39.4485 12.1193C39.1673 11.7699 38.7965 11.4929 38.3363 11.2884C37.8846 11.0753 37.3434 10.9688 36.7127 10.9688C35.869 10.9688 35.1573 11.1477 34.5778 11.5057C33.9982 11.8551 33.7085 12.3239 33.7085 12.9119C33.7085 13.3807 33.896 13.777 34.271 14.1009C34.646 14.4247 35.2894 14.6847 36.2014 14.8807L39.7553 15.5966C41.6644 15.9886 43.0877 16.6193 44.0252 17.4886C44.9627 18.358 45.4315 19.5 45.4315 20.9148C45.4315 22.2017 45.0522 23.331 44.2937 24.3026C43.5437 25.2741 42.5124 26.0327 41.1999 26.5781C39.896 27.1151 38.3917 27.3835 36.6871 27.3835C34.0877 27.3835 32.0167 26.8423 30.4741 25.7599C28.94 24.669 28.0408 23.1861 27.7766 21.3111L33.1332 21.0298C33.2951 21.8224 33.6871 22.4276 34.3093 22.8452C34.9315 23.2543 35.7283 23.4588 36.6999 23.4588C37.6545 23.4588 38.4215 23.2756 39.0011 22.9091C39.5891 22.5341 39.8874 22.0526 39.896 21.4645C39.8874 20.9702 39.6786 20.5653 39.2695 20.25C38.8604 19.9261 38.2298 19.679 37.3775 19.5085L33.9769 18.831C32.0593 18.4474 30.6317 17.7827 29.6942 16.8366C28.7653 15.8906 28.3008 14.6847 28.3008 13.2188C28.3008 11.9574 28.6417 10.8707 29.3235 9.95881C30.0138 9.04688 30.9812 8.34375 32.2255 7.84943C33.4783 7.35511 34.9442 7.10795 36.6232 7.10795C39.1033 7.10795 41.055 7.6321 42.4783 8.6804C43.9102 9.72869 44.7454 11.1562 44.984 12.9631ZM54.3068 0.818181V27H48.8608V0.818181H54.3068ZM64.2688 27.3707C63.016 27.3707 61.8995 27.1534 60.9194 26.7188C59.9393 26.2756 59.1637 25.6236 58.5927 24.7628C58.0302 23.8935 57.7489 22.8111 57.7489 21.5156C57.7489 20.4247 57.9492 19.5085 58.3498 18.767C58.7504 18.0256 59.2958 17.429 59.9862 16.9773C60.6765 16.5256 61.4606 16.1847 62.3384 15.9545C63.2248 15.7244 64.1538 15.5625 65.1254 15.4688C66.2674 15.3494 67.1879 15.2386 67.8867 15.1364C68.5856 15.0256 69.0927 14.8636 69.408 14.6506C69.7234 14.4375 69.881 14.1222 69.881 13.7045V13.6278C69.881 12.8182 69.6254 12.1918 69.114 11.7486C68.6112 11.3054 67.8952 11.0838 66.9663 11.0838C65.9862 11.0838 65.2063 11.3011 64.6268 11.7358C64.0472 12.1619 63.6637 12.6989 63.4762 13.3466L58.4393 12.9375C58.695 11.7443 59.1978 10.7131 59.9478 9.84375C60.6978 8.96591 61.6651 8.29261 62.8498 7.82386C64.043 7.34659 65.4237 7.10795 66.9918 7.10795C68.0827 7.10795 69.1268 7.2358 70.1239 7.49148C71.1296 7.74716 72.0202 8.14347 72.7958 8.6804C73.5799 9.21733 74.1978 9.90767 74.6495 10.7514C75.1012 11.5866 75.3271 12.5881 75.3271 13.7557V27H70.1623V24.277H70.0089C69.6935 24.8906 69.2717 25.4318 68.7433 25.9006C68.2148 26.3608 67.5799 26.723 66.8384 26.9872C66.0969 27.2429 65.2404 27.3707 64.2688 27.3707ZM65.8285 23.6122C66.6296 23.6122 67.337 23.4545 67.9506 23.1392C68.5643 22.8153 69.0458 22.3807 69.3952 21.8352C69.7447 21.2898 69.9194 20.6719 69.9194 19.9815V17.8977C69.7489 18.0085 69.5146 18.1108 69.2163 18.2045C68.9265 18.2898 68.5984 18.3707 68.2319 18.4474C67.8654 18.5156 67.4989 18.5795 67.1325 18.6392C66.766 18.6903 66.4336 18.7372 66.1353 18.7798C65.4961 18.8736 64.9379 19.0227 64.4606 19.2273C63.9833 19.4318 63.6126 19.7088 63.3484 20.0582C63.0842 20.3991 62.9521 20.8253 62.9521 21.3366C62.9521 22.0781 63.2205 22.6449 63.7575 23.0369C64.3029 23.4205 64.9933 23.6122 65.8285 23.6122ZM84.9982 15.6477V27H79.5522V7.36364H84.7425V10.8281H84.9727C85.4073 9.68608 86.136 8.78267 87.1587 8.1179C88.1815 7.4446 89.4215 7.10795 90.8789 7.10795C92.2425 7.10795 93.4315 7.40625 94.4457 8.00284C95.4599 8.59943 96.2482 9.4517 96.8107 10.5597C97.3732 11.6591 97.6545 12.9716 97.6545 14.4972V27H92.2085V15.4688C92.217 14.267 91.9102 13.3295 91.288 12.6562C90.6658 11.9744 89.8093 11.6335 88.7184 11.6335C87.9854 11.6335 87.3377 11.7912 86.7752 12.1065C86.2212 12.4219 85.7866 12.8821 85.4712 13.4872C85.1644 14.0838 85.0067 14.804 84.9982 15.6477ZM133.482 9.98438H127.882C127.78 9.25994 127.571 8.61648 127.256 8.05398C126.941 7.48295 126.536 6.99716 126.042 6.59659C125.547 6.19602 124.976 5.8892 124.328 5.67614C123.689 5.46307 122.995 5.35653 122.245 5.35653C120.89 5.35653 119.709 5.69318 118.703 6.36648C117.698 7.03125 116.918 8.00284 116.364 9.28125C115.81 10.5511 115.533 12.0937 115.533 13.9091C115.533 15.7756 115.81 17.3437 116.364 18.6136C116.926 19.8835 117.711 20.8423 118.716 21.4901C119.722 22.1378 120.885 22.4616 122.206 22.4616C122.948 22.4616 123.634 22.3636 124.265 22.1676C124.904 21.9716 125.471 21.6861 125.965 21.3111C126.459 20.9276 126.868 20.4631 127.192 19.9176C127.525 19.3722 127.755 18.75 127.882 18.0511L133.482 18.0767C133.337 19.2784 132.975 20.4375 132.395 21.554C131.824 22.6619 131.053 23.6548 130.081 24.5327C129.118 25.402 127.968 26.0923 126.63 26.6037C125.3 27.1065 123.796 27.358 122.117 27.358C119.782 27.358 117.694 26.8295 115.853 25.7727C114.02 24.7159 112.571 23.1861 111.506 21.1832C110.449 19.1804 109.921 16.7557 109.921 13.9091C109.921 11.054 110.458 8.625 111.532 6.62216C112.605 4.61932 114.063 3.09375 115.904 2.04545C117.745 0.988636 119.816 0.460226 122.117 0.460226C123.634 0.460226 125.04 0.673295 126.336 1.09943C127.64 1.52557 128.794 2.14773 129.8 2.96591C130.806 3.77557 131.624 4.76846 132.255 5.9446C132.894 7.12074 133.303 8.46733 133.482 9.98438ZM142.949 27.3707C141.696 27.3707 140.579 27.1534 139.599 26.7188C138.619 26.2756 137.843 25.6236 137.272 24.7628C136.71 23.8935 136.429 22.8111 136.429 21.5156C136.429 20.4247 136.629 19.5085 137.029 18.767C137.43 18.0256 137.975 17.429 138.666 16.9773C139.356 16.5256 140.14 16.1847 141.018 15.9545C141.904 15.7244 142.833 15.5625 143.805 15.4688C144.947 15.3494 145.868 15.2386 146.566 15.1364C147.265 15.0256 147.772 14.8636 148.088 14.6506C148.403 14.4375 148.561 14.1222 148.561 13.7045V13.6278C148.561 12.8182 148.305 12.1918 147.794 11.7486C147.291 11.3054 146.575 11.0838 145.646 11.0838C144.666 11.0838 143.886 11.3011 143.306 11.7358C142.727 12.1619 142.343 12.6989 142.156 13.3466L137.119 12.9375C137.375 11.7443 137.877 10.7131 138.627 9.84375C139.377 8.96591 140.345 8.29261 141.529 7.82386C142.723 7.34659 144.103 7.10795 145.672 7.10795C146.762 7.10795 147.806 7.2358 148.804 7.49148C149.809 7.74716 150.7 8.14347 151.475 8.6804C152.26 9.21733 152.877 9.90767 153.329 10.7514C153.781 11.5866 154.007 12.5881 154.007 13.7557V27H148.842V24.277H148.689C148.373 24.8906 147.951 25.4318 147.423 25.9006C146.895 26.3608 146.26 26.723 145.518 26.9872C144.777 27.2429 143.92 27.3707 142.949 27.3707ZM144.508 23.6122C145.309 23.6122 146.017 23.4545 146.63 23.1392C147.244 22.8153 147.725 22.3807 148.075 21.8352C148.424 21.2898 148.599 20.6719 148.599 19.9815V17.8977C148.429 18.0085 148.194 18.1108 147.896 18.2045C147.606 18.2898 147.278 18.3707 146.912 18.4474C146.545 18.5156 146.179 18.5795 145.812 18.6392C145.446 18.6903 145.113 18.7372 144.815 18.7798C144.176 18.8736 143.618 19.0227 143.14 19.2273C142.663 19.4318 142.292 19.7088 142.028 20.0582C141.764 20.3991 141.632 20.8253 141.632 21.3366C141.632 22.0781 141.9 22.6449 142.437 23.0369C142.983 23.4205 143.673 23.6122 144.508 23.6122ZM158.232 27V7.36364H163.512V10.7898H163.716C164.074 9.57102 164.675 8.65057 165.519 8.02841C166.363 7.39773 167.334 7.08239 168.434 7.08239C168.706 7.08239 169 7.09943 169.316 7.13352C169.631 7.16761 169.908 7.21449 170.147 7.27415V12.1065C169.891 12.0298 169.537 11.9616 169.086 11.902C168.634 11.8423 168.221 11.8125 167.846 11.8125C167.044 11.8125 166.328 11.9872 165.698 12.3366C165.076 12.6776 164.581 13.1548 164.215 13.7685C163.857 14.3821 163.678 15.0895 163.678 15.8906V27H158.232ZM184.391 7.36364V11.4545H172.566V7.36364H184.391ZM175.251 2.65909H180.697V20.9659C180.697 21.4687 180.773 21.8608 180.927 22.142C181.08 22.4148 181.293 22.6065 181.566 22.7173C181.847 22.8281 182.171 22.8835 182.538 22.8835C182.793 22.8835 183.049 22.8622 183.305 22.8196C183.56 22.7685 183.756 22.7301 183.893 22.7045L184.749 26.7571C184.477 26.8423 184.093 26.9403 183.599 27.0511C183.104 27.1705 182.504 27.2429 181.796 27.2685C180.484 27.3196 179.333 27.1449 178.344 26.7443C177.364 26.3437 176.602 25.7216 176.056 24.8778C175.511 24.0341 175.242 22.9687 175.251 21.6818V2.65909ZM193.538 27.3707C192.286 27.3707 191.169 27.1534 190.189 26.7188C189.209 26.2756 188.433 25.6236 187.862 24.7628C187.3 23.8935 187.018 22.8111 187.018 21.5156C187.018 20.4247 187.219 19.5085 187.619 18.767C188.02 18.0256 188.565 17.429 189.256 16.9773C189.946 16.5256 190.73 16.1847 191.608 15.9545C192.494 15.7244 193.423 15.5625 194.395 15.4688C195.537 15.3494 196.457 15.2386 197.156 15.1364C197.855 15.0256 198.362 14.8636 198.678 14.6506C198.993 14.4375 199.151 14.1222 199.151 13.7045V13.6278C199.151 12.8182 198.895 12.1918 198.384 11.7486C197.881 11.3054 197.165 11.0838 196.236 11.0838C195.256 11.0838 194.476 11.3011 193.896 11.7358C193.317 12.1619 192.933 12.6989 192.746 13.3466L187.709 12.9375C187.964 11.7443 188.467 10.7131 189.217 9.84375C189.967 8.96591 190.935 8.29261 192.119 7.82386C193.313 7.34659 194.693 7.10795 196.261 7.10795C197.352 7.10795 198.396 7.2358 199.393 7.49148C200.399 7.74716 201.29 8.14347 202.065 8.6804C202.849 9.21733 203.467 9.90767 203.919 10.7514C204.371 11.5866 204.597 12.5881 204.597 13.7557V27H199.432V24.277H199.278C198.963 24.8906 198.541 25.4318 198.013 25.9006C197.484 26.3608 196.849 26.723 196.108 26.9872C195.366 27.2429 194.51 27.3707 193.538 27.3707ZM195.098 23.6122C195.899 23.6122 196.607 23.4545 197.22 23.1392C197.834 22.8153 198.315 22.3807 198.665 21.8352C199.014 21.2898 199.189 20.6719 199.189 19.9815V17.8977C199.018 18.0085 198.784 18.1108 198.486 18.2045C198.196 18.2898 197.868 18.3707 197.501 18.4474C197.135 18.5156 196.768 18.5795 196.402 18.6392C196.036 18.6903 195.703 18.7372 195.405 18.7798C194.766 18.8736 194.207 19.0227 193.73 19.2273C193.253 19.4318 192.882 19.7088 192.618 20.0582C192.354 20.3991 192.222 20.8253 192.222 21.3366C192.222 22.0781 192.49 22.6449 193.027 23.0369C193.572 23.4205 194.263 23.6122 195.098 23.6122Z" fill="#82735C"/>
</svg>
