<svg width="307" height="80" viewBox="0 0 307 80" fill="none" xmlns="http://www.w3.org/2000/svg">
<path d="M34.9599 0L0 30.392V80H69.9213V30.4639L34.9599 0ZM59.7233 37.9067C58.0877 40.2426 55.1205 41.0442 54.4922 39.7726C53.2604 37.3345 56.5425 36.9669 57.2706 36.3187C57.8674 35.6151 58.137 34.6877 58.0125 33.77C57.8865 32.8522 57.3788 32.0326 56.6164 31.5185C55.6419 30.6519 54.3239 30.2925 53.0497 30.5468C51.7754 30.8011 50.6914 31.6387 50.1152 32.8149C49.008 35.2406 49.8374 40.3448 52.6295 44.2439C62.7029 58.2754 55.8623 67.2538 50.3671 70.2006C49.9387 70.4121 49.5199 70.6111 49.1093 70.7977C48.9642 71.2552 48.7041 71.6657 48.3551 71.9905C47.6872 72.5129 46.9755 72.9759 46.2296 73.3754C45.7765 73.7817 46.4308 74.0347 44.2546 74.1369C42.0798 74.2392 38.6964 74.8487 37.2757 74.8487C35.8551 74.8487 35.1995 74.4424 34.5972 74.6967C33.4955 75.121 32.3006 75.2344 31.14 75.027C30.7089 74.9317 30.3366 74.6608 30.1121 74.2779C29.8877 73.8937 29.8315 73.4348 29.9575 73.0077C30.1983 72.3084 30.6692 71.7113 31.2905 71.3187L30.8375 70.9373L27.732 70.7852C26.8519 70.7465 25.8706 70.2904 25.7201 70.4425C25.5695 70.5945 25.4559 72.1314 24.8523 72.7797C24.4239 73.3464 23.7711 73.6947 23.0662 73.732C21.7509 73.79 20.4342 73.6615 19.1545 73.3505C18.6495 72.9676 18.477 72.2807 18.7398 71.7002C18.9041 71.374 19.1354 71.0879 19.4201 70.8613C18.8493 70.9248 18.295 70.647 17.9994 70.1508C17.4711 69.2994 17.5464 68.5365 17.9994 68.1564C18.4524 67.7749 19.8471 67.522 20.0743 67.3188C20.3001 67.1156 20.5013 64.3223 20.7531 63.3064C21.0912 62.057 21.3362 60.784 21.4827 59.4972C20.9434 57.3121 19.9621 55.2624 18.603 53.4766C17.4464 52.2064 15.2963 47.5458 15.4208 45.8568C15.5467 44.1679 16.654 42.1997 16.6786 41.311C16.7033 40.4223 16.8292 38.783 16.201 38.1237C15.5714 37.4631 13.22 37.3484 12.6794 36.7388C12.1387 36.1293 12.3892 35.8625 12.2386 35.7478C12.0087 35.5944 11.8157 35.3899 11.6734 35.1507C11.4845 34.8467 11.6611 34.5039 11.4845 34.3643C11.2395 34.1639 11.1027 33.8571 11.1204 33.5392C11.1355 33.1715 11.2778 32.8204 11.5228 32.5482C11.8718 32.1985 12.188 31.8156 12.4658 31.4051C12.7505 30.4791 13.09 29.5724 13.4841 28.6878C14.2917 27.6208 15.3277 26.7528 16.5144 26.1488C17.5833 25.8448 17.7722 25.8448 17.9227 25.5531C18.0733 25.2601 17.0304 22.8856 17.1686 22.5815C17.3068 22.2774 17.7215 22.5815 17.9487 22.7722C18.1746 22.963 18.6413 23.5725 18.7658 23.4965C18.8918 23.4205 18.8918 22.8994 19.1436 22.8994C19.9662 23.3044 20.7354 23.8116 21.432 24.4101C22.0096 24.8925 22.5009 25.3237 23.7587 26.2898C25.6393 27.5144 27.1079 29.2849 27.9715 31.3692C29.3676 34.5827 29.3046 38.8881 31.682 39.4976C34.058 40.1071 37.3031 39.4465 40.6728 41.5169C44.0424 43.5874 46.9358 47.0911 48.3442 54.8643C49.0463 58.498 49.32 62.2021 49.1613 65.8993C52.6185 62.9153 54.4553 58.4579 53.8777 55.4987C53.0223 51.2071 47.9541 44.8064 46.7346 40.4126C45.5151 36.0187 45.3509 29.9483 50.1043 27.7134C51.6714 26.8592 53.4917 26.6091 55.2286 27.0113C56.9641 27.4135 58.4956 28.439 59.5358 29.8972C60.3433 31.0679 60.7922 32.4514 60.8264 33.8764C60.8607 35.3014 60.4774 36.7043 59.7247 37.9109L59.7233 37.9067Z" fill="#82735C"/>
<path d="M106.788 67H100.857L109.895 40.8182H117.028L126.054 67H120.122L113.564 46.8011H113.359L106.788 67ZM106.418 56.7088H120.429V61.0298H106.418V56.7088ZM144.984 52.9631L139.998 53.2699C139.913 52.8437 139.73 52.4602 139.449 52.1193C139.167 51.7699 138.797 51.4929 138.336 51.2884C137.885 51.0753 137.343 50.9688 136.713 50.9688C135.869 50.9688 135.157 51.1477 134.578 51.5057C133.998 51.8551 133.708 52.3239 133.708 52.9119C133.708 53.3807 133.896 53.777 134.271 54.1009C134.646 54.4247 135.289 54.6847 136.201 54.8807L139.755 55.5966C141.664 55.9886 143.088 56.6193 144.025 57.4886C144.963 58.358 145.431 59.5 145.431 60.9148C145.431 62.2017 145.052 63.331 144.294 64.3026C143.544 65.2741 142.512 66.0327 141.2 66.5781C139.896 67.1151 138.392 67.3835 136.687 67.3835C134.088 67.3835 132.017 66.8423 130.474 65.7599C128.94 64.669 128.041 63.1861 127.777 61.3111L133.133 61.0298C133.295 61.8224 133.687 62.4276 134.309 62.8452C134.931 63.2543 135.728 63.4588 136.7 63.4588C137.654 63.4588 138.422 63.2756 139.001 62.9091C139.589 62.5341 139.887 62.0526 139.896 61.4645C139.887 60.9702 139.679 60.5653 139.27 60.25C138.86 59.9261 138.23 59.679 137.377 59.5085L133.977 58.831C132.059 58.4474 130.632 57.7827 129.694 56.8366C128.765 55.8906 128.301 54.6847 128.301 53.2188C128.301 51.9574 128.642 50.8707 129.324 49.9588C130.014 49.0469 130.981 48.3438 132.225 47.8494C133.478 47.3551 134.944 47.108 136.623 47.108C139.103 47.108 141.055 47.6321 142.478 48.6804C143.91 49.7287 144.745 51.1562 144.984 52.9631ZM154.307 40.8182V67H148.861V40.8182H154.307ZM164.269 67.3707C163.016 67.3707 161.9 67.1534 160.919 66.7188C159.939 66.2756 159.164 65.6236 158.593 64.7628C158.03 63.8935 157.749 62.8111 157.749 61.5156C157.749 60.4247 157.949 59.5085 158.35 58.767C158.75 58.0256 159.296 57.429 159.986 56.9773C160.676 56.5256 161.461 56.1847 162.338 55.9545C163.225 55.7244 164.154 55.5625 165.125 55.4688C166.267 55.3494 167.188 55.2386 167.887 55.1364C168.586 55.0256 169.093 54.8636 169.408 54.6506C169.723 54.4375 169.881 54.1222 169.881 53.7045V53.6278C169.881 52.8182 169.625 52.1918 169.114 51.7486C168.611 51.3054 167.895 51.0838 166.966 51.0838C165.986 51.0838 165.206 51.3011 164.627 51.7358C164.047 52.1619 163.664 52.6989 163.476 53.3466L158.439 52.9375C158.695 51.7443 159.198 50.7131 159.948 49.8438C160.698 48.9659 161.665 48.2926 162.85 47.8239C164.043 47.3466 165.424 47.108 166.992 47.108C168.083 47.108 169.127 47.2358 170.124 47.4915C171.13 47.7472 172.02 48.1435 172.796 48.6804C173.58 49.2173 174.198 49.9077 174.65 50.7514C175.101 51.5866 175.327 52.5881 175.327 53.7557V67H170.162V64.277H170.009C169.694 64.8906 169.272 65.4318 168.743 65.9006C168.215 66.3608 167.58 66.723 166.838 66.9872C166.097 67.2429 165.24 67.3707 164.269 67.3707ZM165.828 63.6122C166.63 63.6122 167.337 63.4545 167.951 63.1392C168.564 62.8153 169.046 62.3807 169.395 61.8352C169.745 61.2898 169.919 60.6719 169.919 59.9815V57.8977C169.749 58.0085 169.515 58.1108 169.216 58.2045C168.926 58.2898 168.598 58.3707 168.232 58.4474C167.865 58.5156 167.499 58.5795 167.132 58.6392C166.766 58.6903 166.434 58.7372 166.135 58.7798C165.496 58.8736 164.938 59.0227 164.461 59.2273C163.983 59.4318 163.613 59.7088 163.348 60.0582C163.084 60.3991 162.952 60.8253 162.952 61.3366C162.952 62.0781 163.221 62.6449 163.757 63.0369C164.303 63.4205 164.993 63.6122 165.828 63.6122ZM184.998 55.6477V67H179.552V47.3636H184.743V50.8281H184.973C185.407 49.6861 186.136 48.7827 187.159 48.1179C188.181 47.4446 189.422 47.108 190.879 47.108C192.243 47.108 193.431 47.4062 194.446 48.0028C195.46 48.5994 196.248 49.4517 196.811 50.5597C197.373 51.6591 197.654 52.9716 197.654 54.4972V67H192.208V55.4688C192.217 54.267 191.91 53.3295 191.288 52.6562C190.666 51.9744 189.809 51.6335 188.718 51.6335C187.985 51.6335 187.338 51.7912 186.775 52.1065C186.221 52.4219 185.787 52.8821 185.471 53.4872C185.164 54.0838 185.007 54.804 184.998 55.6477ZM233.482 49.9844H227.882C227.78 49.2599 227.571 48.6165 227.256 48.054C226.941 47.483 226.536 46.9972 226.042 46.5966C225.547 46.196 224.976 45.8892 224.328 45.6761C223.689 45.4631 222.995 45.3565 222.245 45.3565C220.89 45.3565 219.709 45.6932 218.703 46.3665C217.698 47.0312 216.918 48.0028 216.364 49.2812C215.81 50.5511 215.533 52.0937 215.533 53.9091C215.533 55.7756 215.81 57.3437 216.364 58.6136C216.926 59.8835 217.711 60.8423 218.716 61.4901C219.722 62.1378 220.885 62.4616 222.206 62.4616C222.948 62.4616 223.634 62.3636 224.265 62.1676C224.904 61.9716 225.471 61.6861 225.965 61.3111C226.459 60.9276 226.868 60.4631 227.192 59.9176C227.525 59.3722 227.755 58.75 227.882 58.0511L233.482 58.0767C233.337 59.2784 232.975 60.4375 232.395 61.554C231.824 62.6619 231.053 63.6548 230.081 64.5327C229.118 65.402 227.968 66.0923 226.63 66.6037C225.3 67.1065 223.796 67.358 222.117 67.358C219.782 67.358 217.694 66.8295 215.853 65.7727C214.02 64.7159 212.571 63.1861 211.506 61.1832C210.449 59.1804 209.921 56.7557 209.921 53.9091C209.921 51.054 210.458 48.625 211.532 46.6222C212.605 44.6193 214.063 43.0937 215.904 42.0455C217.745 40.9886 219.816 40.4602 222.117 40.4602C223.634 40.4602 225.04 40.6733 226.336 41.0994C227.64 41.5256 228.794 42.1477 229.8 42.9659C230.806 43.7756 231.624 44.7685 232.255 45.9446C232.894 47.1207 233.303 48.4673 233.482 49.9844ZM242.949 67.3707C241.696 67.3707 240.579 67.1534 239.599 66.7188C238.619 66.2756 237.843 65.6236 237.272 64.7628C236.71 63.8935 236.429 62.8111 236.429 61.5156C236.429 60.4247 236.629 59.5085 237.029 58.767C237.43 58.0256 237.975 57.429 238.666 56.9773C239.356 56.5256 240.14 56.1847 241.018 55.9545C241.904 55.7244 242.833 55.5625 243.805 55.4688C244.947 55.3494 245.868 55.2386 246.566 55.1364C247.265 55.0256 247.772 54.8636 248.088 54.6506C248.403 54.4375 248.561 54.1222 248.561 53.7045V53.6278C248.561 52.8182 248.305 52.1918 247.794 51.7486C247.291 51.3054 246.575 51.0838 245.646 51.0838C244.666 51.0838 243.886 51.3011 243.306 51.7358C242.727 52.1619 242.343 52.6989 242.156 53.3466L237.119 52.9375C237.375 51.7443 237.877 50.7131 238.627 49.8438C239.377 48.9659 240.345 48.2926 241.529 47.8239C242.723 47.3466 244.103 47.108 245.672 47.108C246.762 47.108 247.806 47.2358 248.804 47.4915C249.809 47.7472 250.7 48.1435 251.475 48.6804C252.26 49.2173 252.877 49.9077 253.329 50.7514C253.781 51.5866 254.007 52.5881 254.007 53.7557V67H248.842V64.277H248.689C248.373 64.8906 247.951 65.4318 247.423 65.9006C246.895 66.3608 246.26 66.723 245.518 66.9872C244.777 67.2429 243.92 67.3707 242.949 67.3707ZM244.508 63.6122C245.309 63.6122 246.017 63.4545 246.63 63.1392C247.244 62.8153 247.725 62.3807 248.075 61.8352C248.424 61.2898 248.599 60.6719 248.599 59.9815V57.8977C248.429 58.0085 248.194 58.1108 247.896 58.2045C247.606 58.2898 247.278 58.3707 246.912 58.4474C246.545 58.5156 246.179 58.5795 245.812 58.6392C245.446 58.6903 245.113 58.7372 244.815 58.7798C244.176 58.8736 243.618 59.0227 243.14 59.2273C242.663 59.4318 242.292 59.7088 242.028 60.0582C241.764 60.3991 241.632 60.8253 241.632 61.3366C241.632 62.0781 241.9 62.6449 242.437 63.0369C242.983 63.4205 243.673 63.6122 244.508 63.6122ZM258.232 67V47.3636H263.512V50.7898H263.716C264.074 49.571 264.675 48.6506 265.519 48.0284C266.363 47.3977 267.334 47.0824 268.434 47.0824C268.706 47.0824 269 47.0994 269.316 47.1335C269.631 47.1676 269.908 47.2145 270.147 47.2741V52.1065C269.891 52.0298 269.537 51.9616 269.086 51.902C268.634 51.8423 268.221 51.8125 267.846 51.8125C267.044 51.8125 266.328 51.9872 265.698 52.3366C265.076 52.6776 264.581 53.1548 264.215 53.7685C263.857 54.3821 263.678 55.0895 263.678 55.8906V67H258.232ZM284.391 47.3636V51.4545H272.566V47.3636H284.391ZM275.251 42.6591H280.697V60.9659C280.697 61.4687 280.773 61.8608 280.927 62.142C281.08 62.4148 281.293 62.6065 281.566 62.7173C281.847 62.8281 282.171 62.8835 282.538 62.8835C282.793 62.8835 283.049 62.8622 283.305 62.8196C283.56 62.7685 283.756 62.7301 283.893 62.7045L284.749 66.7571C284.477 66.8423 284.093 66.9403 283.599 67.0511C283.104 67.1705 282.504 67.2429 281.796 67.2685C280.484 67.3196 279.333 67.1449 278.344 66.7443C277.364 66.3437 276.602 65.7216 276.056 64.8778C275.511 64.0341 275.242 62.9687 275.251 61.6818V42.6591ZM293.538 67.3707C292.286 67.3707 291.169 67.1534 290.189 66.7188C289.209 66.2756 288.433 65.6236 287.862 64.7628C287.3 63.8935 287.018 62.8111 287.018 61.5156C287.018 60.4247 287.219 59.5085 287.619 58.767C288.02 58.0256 288.565 57.429 289.256 56.9773C289.946 56.5256 290.73 56.1847 291.608 55.9545C292.494 55.7244 293.423 55.5625 294.395 55.4688C295.537 55.3494 296.457 55.2386 297.156 55.1364C297.855 55.0256 298.362 54.8636 298.678 54.6506C298.993 54.4375 299.151 54.1222 299.151 53.7045V53.6278C299.151 52.8182 298.895 52.1918 298.384 51.7486C297.881 51.3054 297.165 51.0838 296.236 51.0838C295.256 51.0838 294.476 51.3011 293.896 51.7358C293.317 52.1619 292.933 52.6989 292.746 53.3466L287.709 52.9375C287.964 51.7443 288.467 50.7131 289.217 49.8438C289.967 48.9659 290.935 48.2926 292.119 47.8239C293.313 47.3466 294.693 47.108 296.261 47.108C297.352 47.108 298.396 47.2358 299.393 47.4915C300.399 47.7472 301.29 48.1435 302.065 48.6804C302.849 49.2173 303.467 49.9077 303.919 50.7514C304.371 51.5866 304.597 52.5881 304.597 53.7557V67H299.432V64.277H299.278C298.963 64.8906 298.541 65.4318 298.013 65.9006C297.484 66.3608 296.849 66.723 296.108 66.9872C295.366 67.2429 294.51 67.3707 293.538 67.3707ZM295.098 63.6122C295.899 63.6122 296.607 63.4545 297.22 63.1392C297.834 62.8153 298.315 62.3807 298.665 61.8352C299.014 61.2898 299.189 60.6719 299.189 59.9815V57.8977C299.018 58.0085 298.784 58.1108 298.486 58.2045C298.196 58.2898 297.868 58.3707 297.501 58.4474C297.135 58.5156 296.768 58.5795 296.402 58.6392C296.036 58.6903 295.703 58.7372 295.405 58.7798C294.766 58.8736 294.207 59.0227 293.73 59.2273C293.253 59.4318 292.882 59.7088 292.618 60.0582C292.354 60.3991 292.222 60.8253 292.222 61.3366C292.222 62.0781 292.49 62.6449 293.027 63.0369C293.572 63.4205 294.263 63.6122 295.098 63.6122Z" fill="#82735C"/>
</svg>
