<svg width="349" height="366" viewBox="0 0 349 366" fill="none" xmlns="http://www.w3.org/2000/svg">
<path d="M339.925 51.7172C332.615 41.5867 321.862 34.4598 309.679 31.6647C297.491 28.8706 284.706 30.6062 273.707 36.5454C240.333 52.0736 241.48 94.251 250.045 124.778C258.612 155.305 294.191 199.779 300.196 229.596C304.255 250.153 291.364 281.123 267.087 301.857C268.196 276.161 266.274 250.429 261.347 225.183C251.463 171.183 231.152 146.834 207.49 132.453C183.828 118.071 161.047 122.661 144.364 118.426C127.673 114.192 128.116 84.2803 118.318 61.9575V61.9513C112.251 47.4757 101.941 35.1728 88.7372 26.6615C79.9056 19.953 76.4629 16.9556 72.405 13.6014C67.515 9.44088 62.114 5.91427 56.3377 3.10154C54.5702 3.10154 54.5701 6.72046 53.6894 7.2497C52.8088 7.779 49.5385 3.5446 47.9496 2.22143C46.3607 0.898197 43.4476 -1.21901 42.4745 0.898191C41.5014 3.01546 48.8301 19.5152 47.771 21.5461C46.7117 23.5772 45.3876 23.5772 37.8802 25.6943L37.8864 25.6882C29.5475 29.8918 22.2742 35.9233 16.6083 43.3331C13.8431 49.4815 11.4535 55.7838 9.45802 62.2149C7.50569 65.0706 5.28866 67.7294 2.83749 70.1605C1.11929 72.0499 0.115304 74.4872 0.010616 77.0414C-0.112557 79.2508 0.842021 81.3865 2.56646 82.7774C3.80436 83.7498 2.56647 86.1317 3.89058 88.249L3.89674 88.2428C4.89444 89.9046 6.25552 91.32 7.86903 92.391C8.92833 93.1849 7.16079 95.0375 10.9606 99.2719C14.7543 103.506 31.2659 104.3 35.682 108.892C40.0978 113.477 39.211 124.863 39.0385 131.036C38.8599 137.216 31.0938 150.892 30.2069 162.622C29.3262 174.359 44.4211 206.738 52.5445 215.565C62.0904 227.966 68.976 242.208 72.763 257.392C71.7283 266.328 70.0162 275.178 67.639 283.857C65.8714 290.916 64.4612 310.328 62.8723 311.736C61.2833 313.146 51.4848 314.912 48.307 317.559C45.1291 320.205 44.5994 325.498 48.307 331.413V331.419C50.3824 334.865 54.2748 336.798 58.284 336.355C56.2886 337.93 54.6626 339.918 53.5111 342.183C51.6696 346.215 52.8829 350.984 56.4242 353.649C65.4097 355.809 74.6531 356.702 83.8857 356.296C88.8373 356.037 93.4194 353.618 96.4248 349.68C100.662 345.18 101.456 334.502 102.516 333.443C103.575 332.385 110.46 335.56 116.644 335.825L138.451 336.884L141.629 339.53C137.263 342.263 133.962 346.405 132.268 351.267C131.387 354.233 131.782 357.428 133.358 360.093C134.929 362.751 137.546 364.641 140.57 365.299C148.718 366.74 157.112 365.952 164.847 363.004C169.084 361.237 173.678 364.062 183.656 364.062C193.633 364.062 217.381 359.828 232.654 359.12C247.928 358.413 243.339 356.652 246.517 353.827C251.758 351.058 256.753 347.839 261.44 344.208C263.891 341.949 265.714 339.093 266.736 335.917C269.618 334.625 272.562 333.24 275.568 331.769C314.152 311.299 362.184 248.916 291.457 151.428C271.853 124.343 266.028 88.8731 273.8 72.0223C277.84 63.8551 285.453 58.0329 294.4 56.2665C303.343 54.5001 312.599 56.9989 319.442 63.0182C324.8 66.594 328.366 72.287 329.247 78.6632C330.121 85.0394 328.224 91.4832 324.036 96.3696C318.918 100.869 295.873 103.429 304.526 120.366C308.941 129.191 329.777 123.628 341.256 107.398H341.25C346.534 99.0153 349.225 89.2661 348.985 79.3635C348.751 69.4607 345.598 59.8468 339.926 51.7231L339.925 51.7172Z" fill="#551911"/>
</svg>
