<svg width="120" height="120" viewBox="0 0 120 120" fill="none" xmlns="http://www.w3.org/2000/svg">
<path d="M1.43167 14.2218C13.7408 12.4599 23.4773 13.2374 29.8661 14.3383C30.6698 14.469 31.4473 13.9864 31.6874 13.2089L33.2234 8.35131C33.366 7.8948 33.3018 7.39787 33.0474 6.99129C32.793 6.58708 32.3745 6.31128 31.9014 6.24232C29.6331 5.9047 27.3482 5.70022 25.0561 5.62889C12.1383 5.23182 4.41563 9.13356 0.528154 11.9939C0.0549993 12.322 -0.125703 12.9354 0.0906642 13.468C0.307031 14.003 0.863404 14.3145 1.43167 14.2218Z" fill="#FFEFD8"/>
<path d="M72.1527 34.3583C70.593 29.7979 66.4511 22.1894 55.6113 15.1682C53.538 13.8248 51.3815 12.6146 49.1536 11.5422C48.8445 11.3924 48.4831 11.3829 48.1669 11.5208C47.8506 11.6564 47.6081 11.925 47.5059 12.2532L45.7084 18C45.53 18.5682 45.8011 19.1793 46.3432 19.4242C52.2422 22.1347 60.8517 27.0517 70.1531 35.6565C70.5668 36.0345 71.185 36.0845 71.6558 35.7801C72.1266 35.4734 72.331 34.8885 72.1527 34.3583Z" fill="#FFEFD8"/>
<path d="M46.2911 97.1735C46.9497 98.6119 47.3063 100.172 47.3325 101.753C47.3801 103.769 47.4252 106.434 47.3943 108.123C47.3658 109.594 47.3135 111.069 47.2612 112.543C47.0638 118.066 49.3416 118.801 51.0916 119.043C51.4292 119.088 51.7692 118.988 52.026 118.767C52.2852 118.546 52.4373 118.225 52.4468 117.885C52.5277 114.335 52.8011 111.404 52.8154 111.254C52.8629 110.762 53.1031 110.308 53.4835 109.994C53.8663 109.678 54.3561 109.528 54.8483 109.573C55.8754 109.67 56.6268 110.579 56.5293 111.606C56.5293 111.642 56.2701 114.502 56.175 117.919C56.1679 118.247 56.2915 118.563 56.5198 118.798C56.748 119.034 57.0619 119.167 57.39 119.167H61.394C61.7197 119.167 62.0336 119.034 62.2618 118.798C62.4901 118.565 62.6137 118.249 62.609 117.923C62.59 115.434 62.7849 112.947 63.1915 110.491C63.3722 109.475 64.3423 108.8 65.3552 108.983C66.3704 109.164 67.0457 110.134 66.8626 111.147C66.4964 113.401 66.3229 115.679 66.3419 117.961C66.3467 118.627 66.8888 119.167 67.5545 119.169H70.3768C71.7677 119.174 73.1206 118.727 74.2357 117.897C75.3509 117.067 76.164 115.895 76.5563 114.561C76.7941 113.703 76.9748 112.828 77.0937 111.946C76.8821 103.486 80.4747 99.6866 82.2817 98.3266C83.0735 97.7084 84.21 97.8083 84.8829 98.5525C85.2229 98.9448 85.3822 99.4608 85.3251 99.9767C85.2681 100.493 84.9994 100.961 84.5833 101.27C83.939 101.746 82.5029 103.063 81.6136 105.797C81.547 106.004 81.5803 106.228 81.6992 106.408C81.8181 106.589 82.0131 106.706 82.2294 106.727C82.636 106.765 83.0093 106.805 83.316 106.824C84.5191 106.891 85.727 106.796 86.9039 106.539C89.4314 105.992 91.7662 104.734 93.8134 103.184C98.0314 99.991 101.194 95.502 102.211 90.1808C103.336 84.5576 102.813 78.7276 100.704 73.3945C99.4984 70.3368 97.7151 67.5383 95.4516 65.1535C95.0474 64.7279 94.3769 64.7065 93.9489 65.1059C92.9028 66.0903 91.5998 66.7632 90.1922 67.0485H90.1851C87.5126 67.5882 84.7426 66.8773 82.6574 65.1202C80.5746 63.3631 79.4071 60.7501 79.4904 58.0253C79.4999 57.4641 79.079 56.991 78.5203 56.9387C77.2982 56.8174 76.0665 56.777 74.8373 56.8222C67.4546 57.0504 60.3502 59.6896 54.6081 64.338C45.5279 71.5637 41.2029 86.2243 46.303 97.1782L46.2911 97.1735ZM85.8197 93.3882C85.8482 93.2717 85.8696 93.1528 85.8839 93.034C86.0289 92.0353 86.942 91.3363 87.9429 91.4504C88.9439 91.5646 89.6739 92.4538 89.5907 93.4595C89.5907 93.5095 89.5526 93.7734 89.4599 94.1871C89.2721 95.0431 88.516 95.6518 87.6386 95.6541C87.5031 95.6541 87.3676 95.6375 87.2344 95.609C86.7494 95.5043 86.3261 95.2119 86.0598 94.7958C85.7935 94.3797 85.7008 93.8733 85.8078 93.3882H85.8149H85.8197ZM69.4091 79.3053C72.3812 79.3053 74.7897 82.5413 74.7897 86.531C74.7897 90.5208 72.3812 93.7568 69.4091 93.7568C66.437 93.7568 64.0213 90.5255 64.0213 86.531C64.0213 82.5366 66.4299 79.3053 69.402 79.3053H69.4091ZM62.0098 92.9911C62.7421 94.161 63.3246 95.4187 63.7431 96.7336C63.9262 97.3042 63.824 97.9296 63.4721 98.4146C63.1178 98.8996 62.5543 99.1873 61.9551 99.1873H58.8808C58.3125 99.1873 57.7752 98.9329 57.4185 98.4931C57.0619 98.0508 56.9216 97.473 57.0429 96.9167C57.3686 95.4592 57.9987 94.0849 58.8927 92.8889C59.2588 92.3848 59.8533 92.0948 60.4762 92.1162C61.0992 92.1376 61.6722 92.4633 62.005 92.9911H62.0122H62.0098ZM55.1954 78.9487C57.6729 79.3148 59.285 82.3107 58.7904 85.637C58.2959 88.9634 55.8897 91.3577 53.4146 90.9987C50.9394 90.6396 49.325 87.6367 49.8195 84.3103C50.3141 80.984 52.725 78.5635 55.1883 78.9392L55.1954 78.9463V78.9487Z" fill="#FFEFD8"/>
<path d="M26.2018 55.7023C26.8462 55.9044 27.4715 56.1731 28.0588 56.506C28.4154 56.7104 28.8482 56.7437 29.231 56.5963C29.6162 56.4489 29.911 56.1327 30.0346 55.7403L41.9253 17.5979L44.4504 9.51386L44.574 9.11441C45.1566 7.25033 44.2602 5.18176 42.4341 4.48035C41.4854 4.11419 40.4274 4.15937 39.512 4.60161C38.5966 5.04623 37.9071 5.84988 37.6099 6.81997L37.4458 7.34068L34.9231 15.4295L23.0182 53.56C22.8969 53.9547 22.9611 54.3803 23.1917 54.7227C23.4224 55.0651 23.798 55.2815 24.207 55.3124C24.8846 55.3718 25.5527 55.505 26.2018 55.7071V55.7023Z" fill="#FFEFD8"/>
<path d="M9.53245 109.078C11.0042 109.537 12.5996 109.392 13.9644 108.674C15.3292 107.956 16.354 106.729 16.8128 105.255L28.4111 68.109L28.8985 66.5493C29.355 65.0775 29.21 63.4845 28.4919 62.1197C27.7762 60.7549 26.547 59.7301 25.0776 59.2689C23.6058 58.8124 22.0128 58.9574 20.648 59.6731C19.2832 60.3887 18.2585 61.618 17.7972 63.0874L17.3098 64.6471L5.70917 101.791C5.25028 103.265 5.39532 104.861 6.11099 106.228C6.82905 107.595 8.0583 108.62 9.53245 109.081V109.078Z" fill="#FFEFD8"/>
<path d="M82.9499 42.9106C82.2699 43.1484 81.8681 43.845 82.006 44.5512C82.8738 48.9166 83.2781 53.3628 83.2162 57.8138V58.1704C83.1758 59.7563 83.8582 61.2733 85.0756 62.2933C86.2905 63.3133 87.905 63.7199 89.4576 63.4037C90.3849 63.2158 91.2147 62.7046 91.7972 61.9604C92.0944 61.5871 92.3203 61.1615 92.463 60.705C93.2048 58.1419 93.5805 55.4884 93.5805 52.8231C93.5543 52.3214 93.7326 51.8292 94.0726 51.4583C94.415 51.0898 94.8906 50.8734 95.3922 50.8591C95.8963 50.8472 96.3813 51.0375 96.7427 51.3894C97.1042 51.7412 97.3063 52.2239 97.3063 52.7256C97.3181 54.6943 97.1446 56.6583 96.7855 58.5937C96.6548 59.2927 96.8949 60.0084 97.4204 60.4863C97.9458 60.9642 98.6829 61.133 99.3653 60.9357C100.666 60.5505 102.019 60.1296 103.386 59.666C104.332 59.3474 105.169 58.7625 105.785 57.9755C106.403 57.1908 106.776 56.2398 106.862 55.2459C107.014 53.2416 106.993 51.2253 106.791 49.2257C106.719 48.7288 106.85 48.2271 107.157 47.8276C107.461 47.4306 107.913 47.1714 108.41 47.1096C108.907 47.0477 109.409 47.1904 109.801 47.5019C110.191 47.8157 110.443 48.2699 110.493 48.7692C110.683 50.5548 110.74 52.3523 110.662 54.1474C110.638 54.749 110.93 55.3196 111.434 55.6501C111.938 55.9806 112.576 56.0258 113.12 55.7666C114.223 55.2459 115.315 54.6919 116.399 54.1046C117.787 53.3533 118.874 52.1478 119.478 50.6879C120.082 49.2281 120.165 47.6065 119.711 46.0943C118.365 41.66 116.651 37.3469 114.587 33.1955C114.261 32.5369 113.496 32.2254 112.804 32.4679C109.047 33.8018 97.7794 37.7392 97.7794 37.7392C97.7794 37.7392 86.6638 41.6219 82.9452 42.9106H82.9499Z" fill="#FFEFD8"/>
<path d="M80.1254 35.8441L80.1563 35.9963L80.551 38.053C80.6318 38.4643 80.8862 38.8233 81.25 39.0326C81.6138 39.2418 82.0513 39.2822 82.4484 39.1467L96.5574 34.2249L110.662 29.3032C111.059 29.1629 111.375 28.8609 111.53 28.4686C111.684 28.0787 111.663 27.6412 111.468 27.2679L110.495 25.4086L110.424 25.2707C109.715 24.0818 108.619 23.1736 107.319 22.7004C106.018 22.2249 104.594 22.2154 103.289 22.6719L97.411 24.7357L91.6618 4.05479C90.851 1.13264 87.7981 -0.66487 84.8997 0.231508C83.4565 0.676131 82.27 1.71279 81.6328 3.07995C80.9956 4.44948 80.9671 6.02349 81.5544 7.41442L89.9832 27.3368L84.1056 29.3888C82.8026 29.8453 81.6946 30.7345 80.9695 31.9115C80.2443 33.0884 79.9471 34.477 80.1278 35.8465L80.1254 35.8441Z" fill="#FFEFD8"/>
</svg>
