<svg width="120" height="98" viewBox="0 0 120 98" fill="none" xmlns="http://www.w3.org/2000/svg">
<path d="M118.111 59.2023C118.702 59.1492 119.249 58.8141 119.594 58.286C119.9 57.8279 120.042 57.242 119.989 56.6513C119.869 55.3397 118.834 54.368 117.682 54.4741L112.792 54.9177C113.932 50.5729 114.533 46.1413 114.533 41.7555C114.533 40.8007 114.489 39.8218 114.403 38.6789C114.403 34.404 114.294 28.2967 113.807 23.2479C113.747 22.6041 113.686 21.9965 113.631 21.413C113.149 16.2026 112.826 12.7547 110.463 6.26405C109.209 2.79447 105.257 0.180833 101.284 0.180833C99.9673 0.180833 98.7449 0.472576 97.6623 1.0416L85.7249 7.87467C78.1299 5.67815 69.2812 4.56663 59.3956 4.56663C49.5101 4.56663 41.3389 5.61064 34.0357 7.67213L22.2164 0.908986L22.1393 0.865586C21.0543 0.291744 19.8342 0 18.5178 0C14.5395 0 10.5949 2.61605 9.33389 6.08563C6.97583 12.5811 6.65515 16.0218 6.16328 21.2322C6.11265 21.8157 6.05479 22.4257 5.9921 23.0694C5.47371 28.3787 5.38209 34.8405 5.40138 39.354C5.35074 40.1642 5.32904 40.9695 5.32904 41.7555C5.32904 46.0641 5.98727 50.5102 7.22899 54.9177L2.31516 54.4765C1.14095 54.368 0.130701 55.3421 0.0101461 56.6537C-0.0404871 57.2444 0.099357 57.8255 0.407978 58.2884C0.757589 58.8165 1.30009 59.1492 1.8884 59.2047L8.8589 59.8364C9.4231 61.3047 10.0524 62.7635 10.7396 64.2101L3.21933 65.9919C2.71541 66.1077 2.279 66.4308 1.99449 66.8889C1.66175 67.429 1.56049 68.1233 1.71962 68.7816C1.98484 69.8786 2.8673 70.6502 3.87515 70.6502C4.02222 70.6502 4.16689 70.6309 4.31397 70.5995L13.0253 68.5405C13.6064 69.5507 14.2236 70.5465 14.8674 71.523L8.81791 75.8509C8.39838 76.1475 8.11869 76.608 8.02948 77.1433C7.9258 77.7702 8.09699 78.4453 8.49241 78.9998C8.96981 79.6653 9.70038 80.0631 10.4454 80.0631C10.8625 80.0631 11.2507 79.9329 11.5786 79.7063L17.6136 75.388C18.6407 76.7189 19.7185 78.0185 20.8541 79.2626C31.4534 90.9107 45.1388 97.3242 59.3981 97.3242C74.7906 97.3242 89.0571 90.9107 99.5574 79.2506C100.63 78.0595 101.653 76.8226 102.622 75.5568L108.425 79.7063C108.751 79.9402 109.142 80.0631 109.556 80.0631C110.304 80.0631 111.034 79.6629 111.509 78.9998C111.905 78.4477 112.076 77.7702 111.975 77.1433C111.881 76.608 111.608 76.1523 111.184 75.8509L105.354 71.6797C106.007 70.6695 106.632 69.6448 107.222 68.6007L115.69 70.602C115.835 70.6381 115.979 70.6526 116.129 70.6526C117.137 70.6526 118.022 69.881 118.277 68.7792C118.434 68.1209 118.338 67.4265 118.002 66.8865C117.718 66.4259 117.286 66.1053 116.782 65.9895L109.443 64.2511C110.113 62.7972 110.721 61.324 111.263 59.8267L118.111 59.2095V59.2023ZM95.5695 75.6556C86.0938 86.1632 73.2499 91.9499 59.3981 91.9499C31.9693 91.9499 10.6986 64.9672 10.6986 41.7555C10.6986 41.0491 10.7203 40.3185 10.7661 39.5855V39.4191C10.7492 35.0261 10.8336 28.709 11.3303 23.5902C11.3954 22.9392 11.4532 22.3244 11.5063 21.7337C11.9885 16.598 12.2513 13.7674 14.3755 7.92048C14.8577 6.58473 16.83 5.37435 18.5081 5.37435C18.9301 5.37435 19.2942 5.45151 19.5931 5.601L33.3557 13.4829L34.4624 13.1453C41.5053 11.0212 49.8935 9.94339 59.3908 9.94339C68.8882 9.94339 77.9322 11.0887 85.2596 13.3479L86.3735 13.6927L100.194 5.78183C100.491 5.63475 100.859 5.5576 101.284 5.5576C102.962 5.5576 104.929 6.77038 105.412 8.0989C107.541 13.9458 107.806 16.7789 108.281 21.9169C108.336 22.5052 108.392 23.1201 108.457 23.7687C108.929 28.6415 109.023 34.6235 109.023 38.7826L109.033 39.002C109.127 40.0436 109.166 40.9189 109.166 41.7555C109.166 53.5337 104.081 66.2065 95.5695 75.6556ZM64.5988 59.236C63.3233 59.236 61.7609 57.3939 61.3438 54.3198L59.3474 54.5898L57.351 54.3198C56.9339 57.3939 55.3667 59.236 54.096 59.236C52.8254 59.236 51.2582 57.3939 50.841 54.3198L46.8507 54.8623C47.521 59.8123 50.4987 63.265 54.0985 63.265C56.1575 63.265 58.0165 62.1245 59.3522 60.2342C60.6904 62.1318 62.5421 63.265 64.6036 63.265C68.1986 63.265 71.1811 59.8123 71.8466 54.8623L67.8562 54.3198C67.4415 57.3939 65.8719 59.236 64.6036 59.236H64.5988ZM100.252 36.0315C99.9769 36.8561 99.4537 37.0056 99.0173 37.6759C98.2795 38.8091 98.3784 40.0533 98.1976 41.201C96.7991 50.1895 93.6165 54.151 82.6001 54.1486C71.808 54.1462 67.4463 48.7887 63.2197 41.6784C62.4891 40.3402 61.3583 39.4167 59.8417 39.2311C58.3275 39.4167 57.1967 40.3402 56.4637 41.6784C52.2419 48.7911 47.8778 54.1462 37.0833 54.1486C26.0694 54.151 22.8843 50.192 21.4859 41.201C21.305 40.0533 21.4039 38.8067 20.6661 37.6759C20.2297 37.0032 19.7089 36.8513 19.4316 36.0315C19.1567 35.2069 18.7468 33.0177 19.5666 32.3281C19.8246 32.1159 20.9048 31.9712 22.4744 31.8724C25.9368 31.6578 31.762 31.6867 36.2949 31.7808C42.8748 31.9182 52.0587 34.9321 55.7597 35.6168C56.1214 35.6843 56.4613 35.7302 56.7917 35.7687C57.4306 35.8411 57.9972 35.8893 58.5035 35.9206V35.9086C58.5035 35.9086 58.6169 35.923 58.8363 35.9399C59.2148 35.9616 59.5427 35.9689 59.8393 35.9689C60.1359 35.9689 60.4638 35.9616 60.8423 35.9399C61.0617 35.923 61.1775 35.9086 61.1775 35.9086V35.9206C61.6814 35.8869 62.248 35.8387 62.8869 35.7687C63.2148 35.7277 63.5548 35.6819 63.9189 35.6168C67.6199 34.9321 76.8038 31.9158 83.3837 31.7808C87.9142 31.6867 93.7418 31.6578 97.2042 31.8724C98.7714 31.9712 99.8516 32.1183 100.112 32.3281C100.927 33.0177 100.519 35.2069 100.245 36.0315H100.252Z" fill="#FFEFD8"/>
</svg>
