<svg width="305" height="90" viewBox="0 0 305 90" fill="none" xmlns="http://www.w3.org/2000/svg">
<path d="M104.788 73H98.8565L107.895 46.8182H115.028L124.054 73H118.122L111.564 52.8011H111.359L104.788 73ZM104.418 62.7088H118.429V67.0298H104.418V62.7088ZM142.984 58.9631L137.998 59.2699C137.913 58.8437 137.73 58.4602 137.449 58.1193C137.167 57.7699 136.797 57.4929 136.336 57.2884C135.885 57.0753 135.343 56.9688 134.713 56.9688C133.869 56.9688 133.157 57.1477 132.578 57.5057C131.998 57.8551 131.708 58.3239 131.708 58.9119C131.708 59.3807 131.896 59.777 132.271 60.1009C132.646 60.4247 133.289 60.6847 134.201 60.8807L137.755 61.5966C139.664 61.9886 141.088 62.6193 142.025 63.4886C142.963 64.358 143.431 65.5 143.431 66.9148C143.431 68.2017 143.052 69.331 142.294 70.3026C141.544 71.2741 140.512 72.0327 139.2 72.5781C137.896 73.1151 136.392 73.3835 134.687 73.3835C132.088 73.3835 130.017 72.8423 128.474 71.7599C126.94 70.669 126.041 69.1861 125.777 67.3111L131.133 67.0298C131.295 67.8224 131.687 68.4276 132.309 68.8452C132.931 69.2543 133.728 69.4588 134.7 69.4588C135.654 69.4588 136.422 69.2756 137.001 68.9091C137.589 68.5341 137.887 68.0526 137.896 67.4645C137.887 66.9702 137.679 66.5653 137.27 66.25C136.86 65.9261 136.23 65.679 135.377 65.5085L131.977 64.831C130.059 64.4474 128.632 63.7827 127.694 62.8366C126.765 61.8906 126.301 60.6847 126.301 59.2188C126.301 57.9574 126.642 56.8707 127.324 55.9588C128.014 55.0469 128.981 54.3438 130.225 53.8494C131.478 53.3551 132.944 53.108 134.623 53.108C137.103 53.108 139.055 53.6321 140.478 54.6804C141.91 55.7287 142.745 57.1562 142.984 58.9631ZM152.307 46.8182V73H146.861V46.8182H152.307ZM162.269 73.3707C161.016 73.3707 159.9 73.1534 158.919 72.7188C157.939 72.2756 157.164 71.6236 156.593 70.7628C156.03 69.8935 155.749 68.8111 155.749 67.5156C155.749 66.4247 155.949 65.5085 156.35 64.767C156.75 64.0256 157.296 63.429 157.986 62.9773C158.676 62.5256 159.461 62.1847 160.338 61.9545C161.225 61.7244 162.154 61.5625 163.125 61.4688C164.267 61.3494 165.188 61.2386 165.887 61.1364C166.586 61.0256 167.093 60.8636 167.408 60.6506C167.723 60.4375 167.881 60.1222 167.881 59.7045V59.6278C167.881 58.8182 167.625 58.1918 167.114 57.7486C166.611 57.3054 165.895 57.0838 164.966 57.0838C163.986 57.0838 163.206 57.3011 162.627 57.7358C162.047 58.1619 161.664 58.6989 161.476 59.3466L156.439 58.9375C156.695 57.7443 157.198 56.7131 157.948 55.8438C158.698 54.9659 159.665 54.2926 160.85 53.8239C162.043 53.3466 163.424 53.108 164.992 53.108C166.083 53.108 167.127 53.2358 168.124 53.4915C169.13 53.7472 170.02 54.1435 170.796 54.6804C171.58 55.2173 172.198 55.9077 172.65 56.7514C173.101 57.5866 173.327 58.5881 173.327 59.7557V73H168.162V70.277H168.009C167.694 70.8906 167.272 71.4318 166.743 71.9006C166.215 72.3608 165.58 72.723 164.838 72.9872C164.097 73.2429 163.24 73.3707 162.269 73.3707ZM163.828 69.6122C164.63 69.6122 165.337 69.4545 165.951 69.1392C166.564 68.8153 167.046 68.3807 167.395 67.8352C167.745 67.2898 167.919 66.6719 167.919 65.9815V63.8977C167.749 64.0085 167.515 64.1108 167.216 64.2045C166.926 64.2898 166.598 64.3707 166.232 64.4474C165.865 64.5156 165.499 64.5795 165.132 64.6392C164.766 64.6903 164.434 64.7372 164.135 64.7798C163.496 64.8736 162.938 65.0227 162.461 65.2273C161.983 65.4318 161.613 65.7088 161.348 66.0582C161.084 66.3991 160.952 66.8253 160.952 67.3366C160.952 68.0781 161.221 68.6449 161.757 69.0369C162.303 69.4205 162.993 69.6122 163.828 69.6122ZM182.998 61.6477V73H177.552V53.3636H182.743V56.8281H182.973C183.407 55.6861 184.136 54.7827 185.159 54.1179C186.181 53.4446 187.422 53.108 188.879 53.108C190.243 53.108 191.431 53.4062 192.446 54.0028C193.46 54.5994 194.248 55.4517 194.811 56.5597C195.373 57.6591 195.654 58.9716 195.654 60.4972V73H190.208V61.4688C190.217 60.267 189.91 59.3295 189.288 58.6562C188.666 57.9744 187.809 57.6335 186.718 57.6335C185.985 57.6335 185.338 57.7912 184.775 58.1065C184.221 58.4219 183.787 58.8821 183.471 59.4872C183.164 60.0838 183.007 60.804 182.998 61.6477ZM231.482 55.9844H225.882C225.78 55.2599 225.571 54.6165 225.256 54.054C224.941 53.483 224.536 52.9972 224.042 52.5966C223.547 52.196 222.976 51.8892 222.328 51.6761C221.689 51.4631 220.995 51.3565 220.245 51.3565C218.89 51.3565 217.709 51.6932 216.703 52.3665C215.698 53.0312 214.918 54.0028 214.364 55.2812C213.81 56.5511 213.533 58.0937 213.533 59.9091C213.533 61.7756 213.81 63.3437 214.364 64.6136C214.926 65.8835 215.711 66.8423 216.716 67.4901C217.722 68.1378 218.885 68.4616 220.206 68.4616C220.948 68.4616 221.634 68.3636 222.265 68.1676C222.904 67.9716 223.471 67.6861 223.965 67.3111C224.459 66.9276 224.868 66.4631 225.192 65.9176C225.525 65.3722 225.755 64.75 225.882 64.0511L231.482 64.0767C231.337 65.2784 230.975 66.4375 230.395 67.554C229.824 68.6619 229.053 69.6548 228.081 70.5327C227.118 71.402 225.968 72.0923 224.63 72.6037C223.3 73.1065 221.796 73.358 220.117 73.358C217.782 73.358 215.694 72.8295 213.853 71.7727C212.02 70.7159 210.571 69.1861 209.506 67.1832C208.449 65.1804 207.921 62.7557 207.921 59.9091C207.921 57.054 208.458 54.625 209.532 52.6222C210.605 50.6193 212.063 49.0937 213.904 48.0455C215.745 46.9886 217.816 46.4602 220.117 46.4602C221.634 46.4602 223.04 46.6733 224.336 47.0994C225.64 47.5256 226.794 48.1477 227.8 48.9659C228.806 49.7756 229.624 50.7685 230.255 51.9446C230.894 53.1207 231.303 54.4673 231.482 55.9844ZM240.949 73.3707C239.696 73.3707 238.579 73.1534 237.599 72.7188C236.619 72.2756 235.843 71.6236 235.272 70.7628C234.71 69.8935 234.429 68.8111 234.429 67.5156C234.429 66.4247 234.629 65.5085 235.029 64.767C235.43 64.0256 235.975 63.429 236.666 62.9773C237.356 62.5256 238.14 62.1847 239.018 61.9545C239.904 61.7244 240.833 61.5625 241.805 61.4688C242.947 61.3494 243.868 61.2386 244.566 61.1364C245.265 61.0256 245.772 60.8636 246.088 60.6506C246.403 60.4375 246.561 60.1222 246.561 59.7045V59.6278C246.561 58.8182 246.305 58.1918 245.794 57.7486C245.291 57.3054 244.575 57.0838 243.646 57.0838C242.666 57.0838 241.886 57.3011 241.306 57.7358C240.727 58.1619 240.343 58.6989 240.156 59.3466L235.119 58.9375C235.375 57.7443 235.877 56.7131 236.627 55.8438C237.377 54.9659 238.345 54.2926 239.529 53.8239C240.723 53.3466 242.103 53.108 243.672 53.108C244.762 53.108 245.806 53.2358 246.804 53.4915C247.809 53.7472 248.7 54.1435 249.475 54.6804C250.26 55.2173 250.877 55.9077 251.329 56.7514C251.781 57.5866 252.007 58.5881 252.007 59.7557V73H246.842V70.277H246.689C246.373 70.8906 245.951 71.4318 245.423 71.9006C244.895 72.3608 244.26 72.723 243.518 72.9872C242.777 73.2429 241.92 73.3707 240.949 73.3707ZM242.508 69.6122C243.309 69.6122 244.017 69.4545 244.63 69.1392C245.244 68.8153 245.725 68.3807 246.075 67.8352C246.424 67.2898 246.599 66.6719 246.599 65.9815V63.8977C246.429 64.0085 246.194 64.1108 245.896 64.2045C245.606 64.2898 245.278 64.3707 244.912 64.4474C244.545 64.5156 244.179 64.5795 243.812 64.6392C243.446 64.6903 243.113 64.7372 242.815 64.7798C242.176 64.8736 241.618 65.0227 241.14 65.2273C240.663 65.4318 240.292 65.7088 240.028 66.0582C239.764 66.3991 239.632 66.8253 239.632 67.3366C239.632 68.0781 239.9 68.6449 240.437 69.0369C240.983 69.4205 241.673 69.6122 242.508 69.6122ZM256.232 73V53.3636H261.512V56.7898H261.716C262.074 55.571 262.675 54.6506 263.519 54.0284C264.363 53.3977 265.334 53.0824 266.434 53.0824C266.706 53.0824 267 53.0994 267.316 53.1335C267.631 53.1676 267.908 53.2145 268.147 53.2741V58.1065C267.891 58.0298 267.537 57.9616 267.086 57.902C266.634 57.8423 266.221 57.8125 265.846 57.8125C265.044 57.8125 264.328 57.9872 263.698 58.3366C263.076 58.6776 262.581 59.1548 262.215 59.7685C261.857 60.3821 261.678 61.0895 261.678 61.8906V73H256.232ZM282.391 53.3636V57.4545H270.566V53.3636H282.391ZM273.251 48.6591H278.697V66.9659C278.697 67.4687 278.773 67.8608 278.927 68.142C279.08 68.4148 279.293 68.6065 279.566 68.7173C279.847 68.8281 280.171 68.8835 280.538 68.8835C280.793 68.8835 281.049 68.8622 281.305 68.8196C281.56 68.7685 281.756 68.7301 281.893 68.7045L282.749 72.7571C282.477 72.8423 282.093 72.9403 281.599 73.0511C281.104 73.1705 280.504 73.2429 279.796 73.2685C278.484 73.3196 277.333 73.1449 276.344 72.7443C275.364 72.3437 274.602 71.7216 274.056 70.8778C273.511 70.0341 273.242 68.9687 273.251 67.6818V48.6591ZM291.538 73.3707C290.286 73.3707 289.169 73.1534 288.189 72.7188C287.209 72.2756 286.433 71.6236 285.862 70.7628C285.3 69.8935 285.018 68.8111 285.018 67.5156C285.018 66.4247 285.219 65.5085 285.619 64.767C286.02 64.0256 286.565 63.429 287.256 62.9773C287.946 62.5256 288.73 62.1847 289.608 61.9545C290.494 61.7244 291.423 61.5625 292.395 61.4688C293.537 61.3494 294.457 61.2386 295.156 61.1364C295.855 61.0256 296.362 60.8636 296.678 60.6506C296.993 60.4375 297.151 60.1222 297.151 59.7045V59.6278C297.151 58.8182 296.895 58.1918 296.384 57.7486C295.881 57.3054 295.165 57.0838 294.236 57.0838C293.256 57.0838 292.476 57.3011 291.896 57.7358C291.317 58.1619 290.933 58.6989 290.746 59.3466L285.709 58.9375C285.964 57.7443 286.467 56.7131 287.217 55.8438C287.967 54.9659 288.935 54.2926 290.119 53.8239C291.313 53.3466 292.693 53.108 294.261 53.108C295.352 53.108 296.396 53.2358 297.393 53.4915C298.399 53.7472 299.29 54.1435 300.065 54.6804C300.849 55.2173 301.467 55.9077 301.919 56.7514C302.371 57.5866 302.597 58.5881 302.597 59.7557V73H297.432V70.277H297.278C296.963 70.8906 296.541 71.4318 296.013 71.9006C295.484 72.3608 294.849 72.723 294.108 72.9872C293.366 73.2429 292.51 73.3707 291.538 73.3707ZM293.098 69.6122C293.899 69.6122 294.607 69.4545 295.22 69.1392C295.834 68.8153 296.315 68.3807 296.665 67.8352C297.014 67.2898 297.189 66.6719 297.189 65.9815V63.8977C297.018 64.0085 296.784 64.1108 296.486 64.2045C296.196 64.2898 295.868 64.3707 295.501 64.4474C295.135 64.5156 294.768 64.5795 294.402 64.6392C294.036 64.6903 293.703 64.7372 293.405 64.7798C292.766 64.8736 292.207 65.0227 291.73 65.2273C291.253 65.4318 290.882 65.7088 290.618 66.0582C290.354 66.3991 290.222 66.8253 290.222 67.3366C290.222 68.0781 290.49 68.6449 291.027 69.0369C291.572 69.4205 292.263 69.6122 293.098 69.6122Z" fill="#551911"/>
<path d="M39.4992 0L0 34.191V90H79V34.2719L39.4992 0ZM67.4779 42.6451C65.63 45.2729 62.2774 46.1747 61.5676 44.7442C60.1759 42.0014 63.8841 41.5877 64.7068 40.8585C65.381 40.067 65.6857 39.0237 65.5449 37.9912C65.4027 36.9588 64.829 36.0367 63.9676 35.4583C62.8666 34.4833 61.3774 34.0791 59.9378 34.3652C58.4981 34.6513 57.2733 35.5935 56.6223 36.9168C55.3713 39.6457 56.3084 45.388 59.463 49.7744C70.8444 65.5599 63.1156 75.6606 56.9068 78.9757C56.4228 79.2136 55.9496 79.4375 55.4857 79.6474C55.3218 80.1621 55.028 80.6239 54.6337 80.9893C53.879 81.577 53.0749 82.0979 52.2321 82.5473C51.7203 83.0044 52.4595 83.289 50.0007 83.4041C47.5435 83.5191 43.7209 84.2048 42.1157 84.2048C40.5106 84.2048 39.7698 83.7477 39.0894 84.0338C37.8446 84.5112 36.4946 84.6387 35.1833 84.4054C34.6962 84.2981 34.2756 83.9934 34.0219 83.5627C33.7683 83.1304 33.7049 82.6142 33.8472 82.1337C34.1194 81.3469 34.6513 80.6752 35.3534 80.2336L34.8415 79.8044L31.3328 79.6334C30.3385 79.5899 29.2297 79.0767 29.0596 79.2478C28.8895 79.4188 28.7612 81.1479 28.0792 81.8771C27.5952 82.5146 26.8576 82.9065 26.0612 82.9485C24.5751 83.0138 23.0875 82.8692 21.6416 82.5193C21.071 82.0886 20.8762 81.3158 21.1731 80.6627C21.3586 80.2958 21.62 79.9739 21.9416 79.7189C21.2968 79.7904 20.6705 79.4779 20.3365 78.9197C19.7396 77.9619 19.8246 77.1035 20.3365 76.6759C20.8483 76.2468 22.4241 75.9622 22.6808 75.7337C22.9359 75.5051 23.1633 72.3626 23.4478 71.2197C23.8297 69.8141 24.1065 68.382 24.272 66.9344C23.6627 64.4761 22.554 62.1701 21.0184 60.1612C19.7117 58.7322 17.2824 53.4891 17.4231 51.589C17.5653 49.6888 18.8164 47.4746 18.8442 46.4748C18.872 45.475 19.0143 43.6309 18.3045 42.8892C17.5932 42.146 14.9365 42.0169 14.3257 41.3312C13.7149 40.6455 13.9978 40.3454 13.8277 40.2163C13.568 40.0437 13.3499 39.8136 13.1891 39.5446C12.9757 39.2025 13.1752 38.8169 12.9757 38.6598C12.6989 38.4344 12.5442 38.0892 12.5644 37.7316C12.5814 37.3179 12.7422 36.923 13.019 36.6167C13.4133 36.2233 13.7705 35.7926 14.0844 35.3308C14.4061 34.289 14.7896 33.2689 15.235 32.2738C16.1473 31.0734 17.3179 30.0969 18.6586 29.4174C19.8664 29.0753 20.0798 29.0753 20.2499 28.7473C20.42 28.4176 19.2416 25.7463 19.3978 25.4042C19.554 25.0621 20.0226 25.4042 20.2792 25.6188C20.5344 25.8333 21.0617 26.5191 21.2024 26.4335C21.3447 26.348 21.3447 25.7618 21.6292 25.7618C22.5586 26.2174 23.4277 26.7881 24.2148 27.4613C24.8674 28.004 25.4225 28.4891 26.8436 29.576C28.9684 30.9537 30.6276 32.9455 31.6034 35.2903C33.1807 38.9055 33.1096 43.7491 35.7956 44.4348C38.4802 45.1205 42.1466 44.3773 45.9538 46.7065C49.761 49.0358 53.0301 52.9775 54.6213 61.7223C55.4146 65.8102 55.7239 69.9774 55.5445 74.1368C59.4506 70.7797 61.5259 65.7651 60.8733 62.436C59.9068 57.608 54.1806 50.4072 52.8027 45.4641C51.4249 40.5211 51.2394 33.6919 56.6099 31.1776C58.3805 30.2167 60.4372 29.9352 62.3996 30.3877C64.3604 30.8402 66.0908 31.9939 67.2661 33.6344C68.1784 34.9514 68.6856 36.5078 68.7243 38.111C68.763 39.7141 68.33 41.2923 67.4795 42.6497L67.4779 42.6451Z" fill="#551911"/>
</svg>
