<svg width="120" height="120" viewBox="0 0 120 120" fill="none" xmlns="http://www.w3.org/2000/svg">
<path d="M60 0C26.9175 0 0 26.9143 0 59.9968C0 93.0794 26.9175 120 60 120C93.0825 120 120 93.0825 120 59.9968C120 26.9111 93.0825 0.0031746 60 0ZM6.10159 43.2222C9.64444 43.1365 11.5905 41.6317 13.1587 40.4063C14.6349 39.2476 15.8032 38.3302 18.3206 38.3302C20.8381 38.3302 22 39.2476 23.4794 40.4063C25.0857 41.6667 27.0921 43.2349 30.8349 43.2349C35.1714 43.2349 37.073 38.454 38.7492 34.2413C40.0635 30.927 41.4317 27.4952 43.3524 27.4952C45.273 27.4952 46.6413 30.927 47.9619 34.2444C49.5619 38.273 51.3746 42.7968 55.3143 43.1937C54.9048 44.1587 54.5048 45.1365 54.1079 46.1175C51.6921 52.0667 49.1905 58.2159 45.0222 58.2159C40.2667 58.2159 38.0032 56.4794 35.3841 54.4698C32.6444 52.3683 29.5397 49.9873 23.5746 49.9873C17.6095 49.9873 14.5016 52.3683 11.7619 54.4698C9.43175 56.2571 7.37143 57.819 3.60635 58.146C3.7746 52.9651 4.6254 47.9587 6.10794 43.219L6.10159 43.2222ZM22.5492 102.184C11.3079 92.1873 4.07619 77.781 3.59683 61.7016C8.59683 61.3365 11.4222 59.2095 13.9206 57.2921C16.5429 55.2825 18.8064 53.546 23.5714 53.546C28.3365 53.546 30.5905 55.2825 33.2159 57.2921C35.9524 59.3937 39.054 61.7746 45.0222 61.7746C51.5841 61.7746 54.5429 54.4952 57.4 47.4571C59.8159 41.5111 62.3143 35.3619 66.4794 35.3619C70.6444 35.3619 73.146 41.5111 75.5587 47.4603C78.2889 54.1714 81.1111 61.0857 87.054 61.7111C86.9333 62.1619 86.8127 62.6095 86.6921 63.0635C85.1333 68.927 83.0032 76.9556 80.3238 76.9556C77.1048 76.9556 75.5587 75.1429 73.6 72.8445C71.4571 70.3302 69.0286 67.4762 64.1651 67.4762C59.3016 67.4762 56.873 70.327 54.7302 72.8413C52.9524 74.9238 51.5016 76.5968 48.8476 76.8921C46.9714 71.7302 44.6127 68.0159 40.7778 68.0159C34.819 68.0159 32.4127 76.9587 29.8667 86.4286C28.0064 93.3397 25.6984 101.898 22.546 102.181L22.5492 102.184ZM60 116.444C47.0635 116.444 35.1397 112.057 25.6064 104.711C29.3238 102.092 31.273 94.8952 33.3016 87.3492C35.1937 80.3175 37.546 71.5714 40.7778 71.5714C44.0095 71.5714 46.3651 80.3206 48.254 87.3492C50.8032 96.8159 53.2064 105.762 59.1683 105.762C64.5778 105.762 67.2984 102.606 69.7048 99.8159C71.8857 97.2889 73.7714 95.1048 77.5524 95.1048C81.3333 95.1048 83.2191 97.2889 85.4 99.8159C87.3905 102.121 89.6222 104.657 93.3937 105.47C84.0349 112.365 72.4889 116.444 60.0032 116.444H60ZM96.9778 102.587C96.6825 102.365 96.3333 102.21 95.9333 102.21C92.1524 102.21 90.2698 100.029 88.0857 97.5016C85.6825 94.7143 82.9556 91.5524 77.546 91.5524C72.1365 91.5524 69.4127 94.7111 67.0064 97.4984C64.8254 100.025 62.9429 102.21 59.1619 102.21C55.927 102.21 53.5746 93.4603 51.6825 86.4318C51.1206 84.3365 50.5587 82.2762 49.9746 80.3238C53.5524 79.6667 55.6032 77.2952 57.4286 75.1492C59.3905 72.8508 60.9397 71.0349 64.1587 71.0349C67.3778 71.0349 68.9302 72.8508 70.8889 75.1492C73.0317 77.6635 75.4603 80.5111 80.3206 80.5111C85.7302 80.5111 87.8667 72.4825 90.127 63.9746C91.6825 58.1175 93.8127 50.0952 96.4889 50.0952C99.1651 50.0952 101.295 58.1206 102.854 63.981C105.102 72.4349 107.229 80.4191 112.571 80.5016C109.216 89.0825 103.819 96.6413 96.9809 102.584L96.9778 102.587Z" fill="#FFEFD8"/>
</svg>
