<svg width="70" height="80" viewBox="0 0 70 80" fill="none" xmlns="http://www.w3.org/2000/svg">
<path d="M34.9599 0L0 30.392V80H69.9213V30.4639L34.9599 0ZM59.7233 37.9067C58.0877 40.2426 55.1205 41.0442 54.4922 39.7726C53.2604 37.3345 56.5425 36.9669 57.2706 36.3187C57.8674 35.6151 58.137 34.6877 58.0125 33.77C57.8865 32.8522 57.3788 32.0326 56.6164 31.5185C55.6419 30.6519 54.3239 30.2925 53.0497 30.5468C51.7754 30.8011 50.6914 31.6387 50.1152 32.8149C49.008 35.2406 49.8374 40.3448 52.6295 44.2439C62.7029 58.2754 55.8623 67.2538 50.3671 70.2006C49.9387 70.4121 49.5199 70.6111 49.1093 70.7977C48.9642 71.2552 48.7041 71.6657 48.3551 71.9905C47.6872 72.5129 46.9755 72.9759 46.2296 73.3754C45.7765 73.7817 46.4308 74.0347 44.2546 74.1369C42.0798 74.2392 38.6964 74.8487 37.2757 74.8487C35.8551 74.8487 35.1995 74.4424 34.5972 74.6967C33.4955 75.121 32.3006 75.2344 31.14 75.027C30.7089 74.9317 30.3366 74.6608 30.1121 74.2779C29.8877 73.8937 29.8315 73.4348 29.9575 73.0077C30.1983 72.3084 30.6692 71.7113 31.2905 71.3187L30.8375 70.9373L27.732 70.7852C26.8519 70.7465 25.8706 70.2904 25.7201 70.4425C25.5695 70.5945 25.4559 72.1314 24.8523 72.7797C24.4239 73.3464 23.7711 73.6947 23.0662 73.732C21.7509 73.79 20.4342 73.6615 19.1545 73.3505C18.6495 72.9676 18.477 72.2807 18.7398 71.7002C18.9041 71.374 19.1354 71.0879 19.4201 70.8613C18.8493 70.9248 18.295 70.647 17.9994 70.1508C17.4711 69.2994 17.5464 68.5365 17.9994 68.1564C18.4524 67.7749 19.8471 67.522 20.0743 67.3188C20.3001 67.1156 20.5013 64.3223 20.7531 63.3064C21.0912 62.057 21.3362 60.784 21.4827 59.4972C20.9434 57.3121 19.9621 55.2624 18.603 53.4766C17.4464 52.2064 15.2963 47.5458 15.4208 45.8568C15.5467 44.1679 16.654 42.1997 16.6786 41.311C16.7033 40.4223 16.8292 38.783 16.201 38.1237C15.5714 37.4631 13.22 37.3484 12.6794 36.7388C12.1387 36.1293 12.3892 35.8625 12.2386 35.7478C12.0087 35.5944 11.8157 35.3899 11.6734 35.1507C11.4845 34.8467 11.6611 34.5039 11.4845 34.3643C11.2395 34.1639 11.1027 33.8571 11.1204 33.5392C11.1355 33.1715 11.2778 32.8204 11.5228 32.5482C11.8718 32.1985 12.188 31.8156 12.4658 31.4051C12.7505 30.4791 13.09 29.5724 13.4841 28.6878C14.2917 27.6208 15.3277 26.7528 16.5144 26.1488C17.5833 25.8448 17.7722 25.8448 17.9227 25.5531C18.0733 25.2601 17.0304 22.8856 17.1686 22.5815C17.3068 22.2774 17.7215 22.5815 17.9487 22.7722C18.1746 22.963 18.6413 23.5725 18.7658 23.4965C18.8918 23.4205 18.8918 22.8994 19.1436 22.8994C19.9662 23.3044 20.7354 23.8116 21.432 24.4101C22.0096 24.8925 22.5009 25.3237 23.7587 26.2898C25.6393 27.5144 27.1079 29.2849 27.9715 31.3692C29.3676 34.5827 29.3046 38.8881 31.682 39.4976C34.058 40.1071 37.3031 39.4465 40.6728 41.5169C44.0424 43.5874 46.9358 47.0911 48.3442 54.8643C49.0463 58.498 49.32 62.2021 49.1613 65.8993C52.6185 62.9153 54.4553 58.4579 53.8777 55.4987C53.0223 51.2071 47.9541 44.8064 46.7346 40.4126C45.5151 36.0187 45.3509 29.9483 50.1043 27.7134C51.6714 26.8592 53.4917 26.6091 55.2286 27.0113C56.9641 27.4135 58.4956 28.439 59.5358 29.8972C60.3433 31.0679 60.7922 32.4514 60.8264 33.8764C60.8607 35.3014 60.4774 36.7043 59.7247 37.9109L59.7233 37.9067Z" fill="#82735C"/>
</svg>
